<mxfile host="app.diagrams.net" modified="2023-12-26T10:07:36.009Z" agent="Mozilla/5.0 (Macintosh; Intel Mac OS X 10_15_7) AppleWebKit/537.36 (KHTML, like Gecko) Chrome/120.0.0.0 Safari/537.36" etag="6vfXuFZhL6QYb5F74Kxo" version="22.1.11" type="github">
  <diagram name="UniqueCoupon" id="ZGbOV7eQtPBch-2MRxAM">
    <mxGraphModel dx="1434" dy="734" grid="1" gridSize="10" guides="1" tooltips="1" connect="1" arrows="1" fold="1" page="1" pageScale="1" pageWidth="827" pageHeight="1169" math="0" shadow="0">
      <root>
        <mxCell id="0" />
        <mxCell id="1" parent="0" />
        <mxCell id="Gbm58ajWpvd4oVIO_cRi-11" style="edgeStyle=orthogonalEdgeStyle;rounded=0;orthogonalLoop=1;jettySize=auto;html=1;exitX=1;exitY=0.3333333333333333;exitDx=0;exitDy=0;exitPerimeter=0;entryX=0;entryY=0.5;entryDx=0;entryDy=0;" edge="1" parent="1" source="Gbm58ajWpvd4oVIO_cRi-1" target="Gbm58ajWpvd4oVIO_cRi-10">
          <mxGeometry relative="1" as="geometry" />
        </mxCell>
        <mxCell id="Gbm58ajWpvd4oVIO_cRi-12" value="2. Copy PlayerCode" style="edgeLabel;html=1;align=center;verticalAlign=middle;resizable=0;points=[];" vertex="1" connectable="0" parent="Gbm58ajWpvd4oVIO_cRi-11">
          <mxGeometry x="-0.3273" y="-1" relative="1" as="geometry">
            <mxPoint as="offset" />
          </mxGeometry>
        </mxCell>
        <mxCell id="Gbm58ajWpvd4oVIO_cRi-13" style="edgeStyle=orthogonalEdgeStyle;rounded=0;orthogonalLoop=1;jettySize=auto;html=1;exitX=0.5;exitY=0;exitDx=0;exitDy=0;exitPerimeter=0;entryX=0.5;entryY=1;entryDx=0;entryDy=0;" edge="1" parent="1" source="Gbm58ajWpvd4oVIO_cRi-1" target="Gbm58ajWpvd4oVIO_cRi-4">
          <mxGeometry relative="1" as="geometry" />
        </mxCell>
        <mxCell id="Gbm58ajWpvd4oVIO_cRi-14" value="3 Send an email with the PlayerCode and &lt;br&gt;content which describes what is wrong." style="edgeLabel;html=1;align=center;verticalAlign=middle;resizable=0;points=[];" vertex="1" connectable="0" parent="Gbm58ajWpvd4oVIO_cRi-13">
          <mxGeometry x="-0.212" y="-4" relative="1" as="geometry">
            <mxPoint x="41" y="-13" as="offset" />
          </mxGeometry>
        </mxCell>
        <mxCell id="Gbm58ajWpvd4oVIO_cRi-1" value="Player" style="shape=umlActor;verticalLabelPosition=bottom;verticalAlign=top;html=1;outlineConnect=0;" vertex="1" parent="1">
          <mxGeometry x="100" y="547.03" width="30" height="60" as="geometry" />
        </mxCell>
        <mxCell id="Gbm58ajWpvd4oVIO_cRi-2" value="" style="sketch=0;outlineConnect=0;fontColor=#232F3E;gradientColor=none;fillColor=#232F3D;strokeColor=none;dashed=0;verticalLabelPosition=bottom;verticalAlign=top;align=center;html=1;fontSize=12;fontStyle=0;aspect=fixed;pointerEvents=1;shape=mxgraph.aws4.mobile_client;" vertex="1" parent="1">
          <mxGeometry x="330.84000000000003" y="487.51" width="78.33" height="149.03" as="geometry" />
        </mxCell>
        <mxCell id="Gbm58ajWpvd4oVIO_cRi-23" style="edgeStyle=orthogonalEdgeStyle;rounded=0;orthogonalLoop=1;jettySize=auto;html=1;exitX=0.5;exitY=1;exitDx=0;exitDy=0;entryX=1;entryY=0.5;entryDx=0;entryDy=0;" edge="1" parent="1" source="Gbm58ajWpvd4oVIO_cRi-3" target="Gbm58ajWpvd4oVIO_cRi-10">
          <mxGeometry relative="1" as="geometry" />
        </mxCell>
        <mxCell id="Gbm58ajWpvd4oVIO_cRi-24" value="7.Pull remote config" style="edgeLabel;html=1;align=center;verticalAlign=middle;resizable=0;points=[];" vertex="1" connectable="0" parent="Gbm58ajWpvd4oVIO_cRi-23">
          <mxGeometry x="0.4362" relative="1" as="geometry">
            <mxPoint as="offset" />
          </mxGeometry>
        </mxCell>
        <mxCell id="Gbm58ajWpvd4oVIO_cRi-3" value="Firebase Server" style="rounded=0;whiteSpace=wrap;html=1;" vertex="1" parent="1">
          <mxGeometry x="550" y="300" width="120" height="60" as="geometry" />
        </mxCell>
        <mxCell id="Gbm58ajWpvd4oVIO_cRi-15" style="edgeStyle=orthogonalEdgeStyle;rounded=0;orthogonalLoop=1;jettySize=auto;html=1;exitX=0.5;exitY=0;exitDx=0;exitDy=0;" edge="1" parent="1" source="Gbm58ajWpvd4oVIO_cRi-4" target="Gbm58ajWpvd4oVIO_cRi-17">
          <mxGeometry relative="1" as="geometry">
            <mxPoint x="122" y="100" as="targetPoint" />
            <Array as="points">
              <mxPoint x="115" y="330" />
              <mxPoint x="115" y="330" />
            </Array>
          </mxGeometry>
        </mxCell>
        <mxCell id="Gbm58ajWpvd4oVIO_cRi-16" value="4.Receive the email&amp;nbsp;" style="edgeLabel;html=1;align=center;verticalAlign=middle;resizable=0;points=[];" vertex="1" connectable="0" parent="Gbm58ajWpvd4oVIO_cRi-15">
          <mxGeometry x="0.0809" relative="1" as="geometry">
            <mxPoint as="offset" />
          </mxGeometry>
        </mxCell>
        <mxCell id="Gbm58ajWpvd4oVIO_cRi-4" value="CrazyLabs Mail Server" style="rounded=0;whiteSpace=wrap;html=1;" vertex="1" parent="1">
          <mxGeometry x="55" y="300" width="120" height="60" as="geometry" />
        </mxCell>
        <mxCell id="Gbm58ajWpvd4oVIO_cRi-20" style="edgeStyle=orthogonalEdgeStyle;rounded=0;orthogonalLoop=1;jettySize=auto;html=1;exitX=0.88;exitY=0.5;exitDx=0;exitDy=0;exitPerimeter=0;" edge="1" parent="1" source="Gbm58ajWpvd4oVIO_cRi-8" target="Gbm58ajWpvd4oVIO_cRi-3">
          <mxGeometry relative="1" as="geometry" />
        </mxCell>
        <mxCell id="Gbm58ajWpvd4oVIO_cRi-22" value="6.Export the coupon to &lt;br&gt;remote config parameter" style="edgeLabel;html=1;align=center;verticalAlign=middle;resizable=0;points=[];" vertex="1" connectable="0" parent="Gbm58ajWpvd4oVIO_cRi-20">
          <mxGeometry x="0.0309" y="-3" relative="1" as="geometry">
            <mxPoint as="offset" />
          </mxGeometry>
        </mxCell>
        <mxCell id="Gbm58ajWpvd4oVIO_cRi-8" value="Dashboard" style="sketch=0;pointerEvents=1;shadow=0;dashed=0;html=1;strokeColor=none;labelPosition=center;verticalLabelPosition=bottom;verticalAlign=top;align=center;fillColor=#515151;shape=mxgraph.mscae.system_center.admin_console" vertex="1" parent="1">
          <mxGeometry x="340.00000000000006" y="106.4" width="50" height="36" as="geometry" />
        </mxCell>
        <mxCell id="Gbm58ajWpvd4oVIO_cRi-10" value="Game APP" style="image;aspect=fixed;perimeter=ellipsePerimeter;html=1;align=center;shadow=0;dashed=0;fontColor=#4277BB;labelBackgroundColor=default;fontSize=12;spacingTop=3;image=img/lib/ibm/applications/mobile_app.svg;" vertex="1" parent="1">
          <mxGeometry x="349.99999999999994" y="542.03" width="40" height="40" as="geometry" />
        </mxCell>
        <mxCell id="Gbm58ajWpvd4oVIO_cRi-17" value="Actor" style="shape=umlActor;verticalLabelPosition=bottom;verticalAlign=top;html=1;outlineConnect=0;" vertex="1" parent="1">
          <mxGeometry x="100" y="106.4" width="30" height="60" as="geometry" />
        </mxCell>
        <mxCell id="Gbm58ajWpvd4oVIO_cRi-18" style="edgeStyle=orthogonalEdgeStyle;rounded=0;orthogonalLoop=1;jettySize=auto;html=1;exitX=1;exitY=0.3333333333333333;exitDx=0;exitDy=0;exitPerimeter=0;entryX=0;entryY=0.5;entryDx=0;entryDy=0;entryPerimeter=0;" edge="1" parent="1" source="Gbm58ajWpvd4oVIO_cRi-17" target="Gbm58ajWpvd4oVIO_cRi-8">
          <mxGeometry relative="1" as="geometry" />
        </mxCell>
        <mxCell id="Gbm58ajWpvd4oVIO_cRi-19" value="5.Create a Unique Coupon &lt;br&gt;for the player" style="edgeLabel;html=1;align=center;verticalAlign=middle;resizable=0;points=[];" vertex="1" connectable="0" parent="Gbm58ajWpvd4oVIO_cRi-18">
          <mxGeometry x="-0.25" y="-1" relative="1" as="geometry">
            <mxPoint as="offset" />
          </mxGeometry>
        </mxCell>
        <mxCell id="Gbm58ajWpvd4oVIO_cRi-25" value="8.Get the coupon parameter and decrypt all secretCpnID field. If&amp;nbsp; give the gift the player" style="text;html=1;strokeColor=none;fillColor=none;align=center;verticalAlign=middle;whiteSpace=wrap;rounded=0;" vertex="1" parent="1">
          <mxGeometry x="300" y="636.54" width="179.99" height="30" as="geometry" />
        </mxCell>
        <mxCell id="Gbm58ajWpvd4oVIO_cRi-26" value="1. Player encounters a problem&lt;br style=&quot;border-color: var(--border-color);&quot;&gt;&lt;span style=&quot;&quot;&gt;when playing the game.&lt;/span&gt;" style="text;html=1;strokeColor=none;fillColor=none;align=center;verticalAlign=middle;whiteSpace=wrap;rounded=0;" vertex="1" parent="1">
          <mxGeometry x="40" y="636.54" width="190" height="30" as="geometry" />
        </mxCell>
      </root>
    </mxGraphModel>
  </diagram>
</mxfile>
